<svg id="visual" viewBox="0 0 2500 100" width="2500" height="100" xmlns="http://www.w3.org/2000/svg" xmlns:xlink="http://www.w3.org/1999/xlink" version="1.1"><rect x="0" y="0" width="2500" height="100" fill="#d1d5db"></rect><path d="M0 62L17.3 63.5C34.7 65 69.3 68 104 72.2C138.7 76.3 173.3 81.7 208.2 80.5C243 79.3 278 71.7 312.8 65.5C347.7 59.3 382.3 54.7 417 49.5C451.7 44.3 486.3 38.7 521 38C555.7 37.3 590.3 41.7 625 48.2C659.7 54.7 694.3 63.3 729 61.3C763.7 59.3 798.3 46.7 833.2 41.5C868 36.3 903 38.7 937.8 45.5C972.7 52.3 1007.3 63.7 1042 70C1076.7 76.3 1111.3 77.7 1146 72.7C1180.7 67.7 1215.3 56.3 1250 57.7C1284.7 59 1319.3 73 1354 72.8C1388.7 72.7 1423.3 58.3 1458.2 49.7C1493 41 1528 38 1562.8 45C1597.7 52 1632.3 69 1667 70.7C1701.7 72.3 1736.3 58.7 1771 56.8C1805.7 55 1840.3 65 1875 64.2C1909.7 63.3 1944.3 51.7 1979 53.3C2013.7 55 2048.3 70 2083.2 77.3C2118 84.7 2153 84.3 2187.8 78.3C2222.7 72.3 2257.3 60.7 2292 54.2C2326.7 47.7 2361.3 46.3 2396 46.8C2430.7 47.3 2465.3 49.7 2482.7 50.8L2500 52L2500 101L2482.7 101C2465.3 101 2430.7 101 2396 101C2361.3 101 2326.7 101 2292 101C2257.3 101 2222.7 101 2187.8 101C2153 101 2118 101 2083.2 101C2048.3 101 2013.7 101 1979 101C1944.3 101 1909.7 101 1875 101C1840.3 101 1805.7 101 1771 101C1736.3 101 1701.7 101 1667 101C1632.3 101 1597.7 101 1562.8 101C1528 101 1493 101 1458.2 101C1423.3 101 1388.7 101 1354 101C1319.3 101 1284.7 101 1250 101C1215.3 101 1180.7 101 1146 101C1111.3 101 1076.7 101 1042 101C1007.3 101 972.7 101 937.8 101C903 101 868 101 833.2 101C798.3 101 763.7 101 729 101C694.3 101 659.7 101 625 101C590.3 101 555.7 101 521 101C486.3 101 451.7 101 417 101C382.3 101 347.7 101 312.8 101C278 101 243 101 208.2 101C173.3 101 138.7 101 104 101C69.3 101 34.7 101 17.3 101L0 101Z" fill="#1f2937" stroke-linecap="round" stroke-linejoin="miter"></path></svg>