<svg id="visual" viewBox="0 0 2500 100" width="2500" height="100" xmlns="http://www.w3.org/2000/svg" xmlns:xlink="http://www.w3.org/1999/xlink" version="1.1"><rect x="0" y="0" width="2500" height="100" fill="#d1d5db"></rect><path d="M0 37L17.3 41.5C34.7 46 69.3 55 104 59.8C138.7 64.7 173.3 65.3 208.2 57.5C243 49.7 278 33.3 312.8 25.2C347.7 17 382.3 17 417 19.2C451.7 21.3 486.3 25.7 521 28.8C555.7 32 590.3 34 625 37C659.7 40 694.3 44 729 49.2C763.7 54.3 798.3 60.7 833.2 56.7C868 52.7 903 38.3 937.8 30.8C972.7 23.3 1007.3 22.7 1042 27.7C1076.7 32.7 1111.3 43.3 1146 44.2C1180.7 45 1215.3 36 1250 29.7C1284.7 23.3 1319.3 19.7 1354 23.2C1388.7 26.7 1423.3 37.3 1458.2 39.2C1493 41 1528 34 1562.8 36.2C1597.7 38.3 1632.3 49.7 1667 50C1701.7 50.3 1736.3 39.7 1771 35.8C1805.7 32 1840.3 35 1875 40C1909.7 45 1944.3 52 1979 48C2013.7 44 2048.3 29 2083.2 27.5C2118 26 2153 38 2187.8 42.3C2222.7 46.7 2257.3 43.3 2292 38.2C2326.7 33 2361.3 26 2396 24.7C2430.7 23.3 2465.3 27.7 2482.7 29.8L2500 32L2500 0L2482.7 0C2465.3 0 2430.7 0 2396 0C2361.3 0 2326.7 0 2292 0C2257.3 0 2222.7 0 2187.8 0C2153 0 2118 0 2083.2 0C2048.3 0 2013.7 0 1979 0C1944.3 0 1909.7 0 1875 0C1840.3 0 1805.7 0 1771 0C1736.3 0 1701.7 0 1667 0C1632.3 0 1597.7 0 1562.8 0C1528 0 1493 0 1458.2 0C1423.3 0 1388.7 0 1354 0C1319.3 0 1284.7 0 1250 0C1215.3 0 1180.7 0 1146 0C1111.3 0 1076.7 0 1042 0C1007.3 0 972.7 0 937.8 0C903 0 868 0 833.2 0C798.3 0 763.7 0 729 0C694.3 0 659.7 0 625 0C590.3 0 555.7 0 521 0C486.3 0 451.7 0 417 0C382.3 0 347.7 0 312.8 0C278 0 243 0 208.2 0C173.3 0 138.7 0 104 0C69.3 0 34.7 0 17.3 0L0 0Z" fill="#004cbb" stroke-linecap="round" stroke-linejoin="miter"></path></svg>