<svg id="visual" viewBox="0 0 2500 100" width="2500" height="100" xmlns="http://www.w3.org/2000/svg" xmlns:xlink="http://www.w3.org/1999/xlink" version="1.1"><rect x="0" y="0" width="2500" height="100" fill="#d1d5db"></rect><path d="M0 35L17.3 39.8C34.7 44.7 69.3 54.3 104 56.5C138.7 58.7 173.3 53.3 208.2 48C243 42.7 278 37.3 312.8 41.3C347.7 45.3 382.3 58.7 417 60.3C451.7 62 486.3 52 521 47.5C555.7 43 590.3 44 625 49.5C659.7 55 694.3 65 729 65.5C763.7 66 798.3 57 833.2 57.5C868 58 903 68 937.8 72.7C972.7 77.3 1007.3 76.7 1042 69.2C1076.7 61.7 1111.3 47.3 1146 40.8C1180.7 34.3 1215.3 35.7 1250 38.5C1284.7 41.3 1319.3 45.7 1354 48.8C1388.7 52 1423.3 54 1458.2 58.7C1493 63.3 1528 70.7 1562.8 71.3C1597.7 72 1632.3 66 1667 58.7C1701.7 51.3 1736.3 42.7 1771 40.7C1805.7 38.7 1840.3 43.3 1875 47C1909.7 50.7 1944.3 53.3 1979 52.3C2013.7 51.3 2048.3 46.7 2083.2 46.8C2118 47 2153 52 2187.8 52.8C2222.7 53.7 2257.3 50.3 2292 51.7C2326.7 53 2361.3 59 2396 60.5C2430.7 62 2465.3 59 2482.7 57.5L2500 56L2500 101L2482.7 101C2465.3 101 2430.7 101 2396 101C2361.3 101 2326.7 101 2292 101C2257.3 101 2222.7 101 2187.8 101C2153 101 2118 101 2083.2 101C2048.3 101 2013.7 101 1979 101C1944.3 101 1909.7 101 1875 101C1840.3 101 1805.7 101 1771 101C1736.3 101 1701.7 101 1667 101C1632.3 101 1597.7 101 1562.8 101C1528 101 1493 101 1458.2 101C1423.3 101 1388.7 101 1354 101C1319.3 101 1284.7 101 1250 101C1215.3 101 1180.7 101 1146 101C1111.3 101 1076.7 101 1042 101C1007.3 101 972.7 101 937.8 101C903 101 868 101 833.2 101C798.3 101 763.7 101 729 101C694.3 101 659.7 101 625 101C590.3 101 555.7 101 521 101C486.3 101 451.7 101 417 101C382.3 101 347.7 101 312.8 101C278 101 243 101 208.2 101C173.3 101 138.7 101 104 101C69.3 101 34.7 101 17.3 101L0 101Z" fill="#004cbb" stroke-linecap="round" stroke-linejoin="miter"></path></svg>