<svg id="visual" viewBox="0 0 2500 1200" width="2500" height="1200" xmlns="http://www.w3.org/2000/svg" xmlns:xlink="http://www.w3.org/1999/xlink" version="1.1"><path d="M0 337L139 337L139 277L278 277L278 313L417 313L417 229L556 229L556 241L694 241L694 229L833 229L833 325L972 325L972 349L1111 349L1111 289L1250 289L1250 325L1389 325L1389 241L1528 241L1528 325L1667 325L1667 229L1806 229L1806 229L1944 229L1944 241L2083 241L2083 205L2222 205L2222 229L2361 229L2361 193L2500 193L2500 349L2500 0L2500 0L2361 0L2361 0L2222 0L2222 0L2083 0L2083 0L1944 0L1944 0L1806 0L1806 0L1667 0L1667 0L1528 0L1528 0L1389 0L1389 0L1250 0L1250 0L1111 0L1111 0L972 0L972 0L833 0L833 0L694 0L694 0L556 0L556 0L417 0L417 0L278 0L278 0L139 0L139 0L0 0Z" fill="#2563eb"></path><path d="M0 445L139 445L139 409L278 409L278 433L417 433L417 301L556 301L556 373L694 373L694 349L833 349L833 493L972 493L972 457L1111 457L1111 433L1250 433L1250 433L1389 433L1389 397L1528 397L1528 421L1667 421L1667 361L1806 361L1806 385L1944 385L1944 361L2083 361L2083 313L2222 313L2222 349L2361 349L2361 337L2500 337L2500 469L2500 347L2500 191L2361 191L2361 227L2222 227L2222 203L2083 203L2083 239L1944 239L1944 227L1806 227L1806 227L1667 227L1667 323L1528 323L1528 239L1389 239L1389 323L1250 323L1250 287L1111 287L1111 347L972 347L972 323L833 323L833 227L694 227L694 239L556 239L556 227L417 227L417 311L278 311L278 275L139 275L139 335L0 335Z" fill="#276cee"></path><path d="M0 613L139 613L139 661L278 661L278 709L417 709L417 637L556 637L556 649L694 649L694 553L833 553L833 625L972 625L972 673L1111 673L1111 685L1250 685L1250 613L1389 613L1389 685L1528 685L1528 709L1667 709L1667 649L1806 649L1806 649L1944 649L1944 637L2083 637L2083 625L2222 625L2222 589L2361 589L2361 637L2500 637L2500 733L2500 467L2500 335L2361 335L2361 347L2222 347L2222 311L2083 311L2083 359L1944 359L1944 383L1806 383L1806 359L1667 359L1667 419L1528 419L1528 395L1389 395L1389 431L1250 431L1250 431L1111 431L1111 455L972 455L972 491L833 491L833 347L694 347L694 371L556 371L556 299L417 299L417 431L278 431L278 407L139 407L139 443L0 443Z" fill="#2b74f1"></path><path d="M0 709L139 709L139 769L278 769L278 769L417 769L417 745L556 745L556 721L694 721L694 649L833 649L833 673L972 673L972 721L1111 721L1111 793L1250 793L1250 721L1389 721L1389 733L1528 733L1528 757L1667 757L1667 709L1806 709L1806 745L1944 745L1944 733L2083 733L2083 721L2222 721L2222 673L2361 673L2361 745L2500 745L2500 805L2500 731L2500 635L2361 635L2361 587L2222 587L2222 623L2083 623L2083 635L1944 635L1944 647L1806 647L1806 647L1667 647L1667 707L1528 707L1528 683L1389 683L1389 611L1250 611L1250 683L1111 683L1111 671L972 671L972 623L833 623L833 551L694 551L694 647L556 647L556 635L417 635L417 707L278 707L278 659L139 659L139 611L0 611Z" fill="#317df3"></path><path d="M0 781L139 781L139 889L278 889L278 829L417 829L417 841L556 841L556 781L694 781L694 757L833 757L833 745L972 745L972 781L1111 781L1111 889L1250 889L1250 769L1389 769L1389 817L1528 817L1528 889L1667 889L1667 769L1806 769L1806 829L1944 829L1944 817L2083 817L2083 781L2222 781L2222 733L2361 733L2361 817L2500 817L2500 853L2500 803L2500 743L2361 743L2361 671L2222 671L2222 719L2083 719L2083 731L1944 731L1944 743L1806 743L1806 707L1667 707L1667 755L1528 755L1528 731L1389 731L1389 719L1250 719L1250 791L1111 791L1111 719L972 719L972 671L833 671L833 647L694 647L694 719L556 719L556 743L417 743L417 767L278 767L278 767L139 767L139 707L0 707Z" fill="#3985f5"></path><path d="M0 841L139 841L139 961L278 961L278 961L417 961L417 913L556 913L556 865L694 865L694 829L833 829L833 889L972 889L972 889L1111 889L1111 973L1250 973L1250 865L1389 865L1389 913L1528 913L1528 1009L1667 1009L1667 889L1806 889L1806 901L1944 901L1944 949L2083 949L2083 865L2222 865L2222 877L2361 877L2361 925L2500 925L2500 913L2500 851L2500 815L2361 815L2361 731L2222 731L2222 779L2083 779L2083 815L1944 815L1944 827L1806 827L1806 767L1667 767L1667 887L1528 887L1528 815L1389 815L1389 767L1250 767L1250 887L1111 887L1111 779L972 779L972 743L833 743L833 755L694 755L694 779L556 779L556 839L417 839L417 827L278 827L278 887L139 887L139 779L0 779Z" fill="#428df7"></path><path d="M0 1057L139 1057L139 1081L278 1081L278 1057L417 1057L417 1081L556 1081L556 1057L694 1057L694 1033L833 1033L833 1057L972 1057L972 1081L1111 1081L1111 1057L1250 1057L1250 1069L1389 1069L1389 1093L1528 1093L1528 1105L1667 1105L1667 1069L1806 1069L1806 1081L1944 1081L1944 1069L2083 1069L2083 1033L2222 1033L2222 1069L2361 1069L2361 1057L2500 1057L2500 1021L2500 911L2500 923L2361 923L2361 875L2222 875L2222 863L2083 863L2083 947L1944 947L1944 899L1806 899L1806 887L1667 887L1667 1007L1528 1007L1528 911L1389 911L1389 863L1250 863L1250 971L1111 971L1111 887L972 887L972 887L833 887L833 827L694 827L694 863L556 863L556 911L417 911L417 959L278 959L278 959L139 959L139 839L0 839Z" fill="#4b95f8"></path><path d="M0 1129L139 1129L139 1117L278 1117L278 1105L417 1105L417 1141L556 1141L556 1129L694 1129L694 1105L833 1105L833 1141L972 1141L972 1141L1111 1141L1111 1141L1250 1141L1250 1105L1389 1105L1389 1129L1528 1129L1528 1153L1667 1153L1667 1117L1806 1117L1806 1117L1944 1117L1944 1153L2083 1153L2083 1105L2222 1105L2222 1153L2361 1153L2361 1105L2500 1105L2500 1105L2500 1019L2500 1055L2361 1055L2361 1067L2222 1067L2222 1031L2083 1031L2083 1067L1944 1067L1944 1079L1806 1079L1806 1067L1667 1067L1667 1103L1528 1103L1528 1091L1389 1091L1389 1067L1250 1067L1250 1055L1111 1055L1111 1079L972 1079L972 1055L833 1055L833 1031L694 1031L694 1055L556 1055L556 1079L417 1079L417 1055L278 1055L278 1079L139 1079L139 1055L0 1055Z" fill="#559df9"></path><path d="M0 1201L139 1201L139 1201L278 1201L278 1201L417 1201L417 1201L556 1201L556 1201L694 1201L694 1201L833 1201L833 1201L972 1201L972 1201L1111 1201L1111 1201L1250 1201L1250 1201L1389 1201L1389 1201L1528 1201L1528 1201L1667 1201L1667 1201L1806 1201L1806 1201L1944 1201L1944 1201L2083 1201L2083 1201L2222 1201L2222 1201L2361 1201L2361 1201L2500 1201L2500 1201L2500 1103L2500 1103L2361 1103L2361 1151L2222 1151L2222 1103L2083 1103L2083 1151L1944 1151L1944 1115L1806 1115L1806 1115L1667 1115L1667 1151L1528 1151L1528 1127L1389 1127L1389 1103L1250 1103L1250 1139L1111 1139L1111 1139L972 1139L972 1139L833 1139L833 1103L694 1103L694 1127L556 1127L556 1139L417 1139L417 1103L278 1103L278 1115L139 1115L139 1127L0 1127Z" fill="#60a5fa"></path></svg>