<svg preserveAspectRatio="none" id="visual" viewBox="0 0 960 540" width="960" height="540" xmlns="http://www.w3.org/2000/svg" xmlns:xlink="http://www.w3.org/1999/xlink" version="1.1"><path d="M0 82L14.5 85.7C29 89.3 58 96.7 87.2 97.5C116.3 98.3 145.7 92.7 174.8 87.2C204 81.7 233 76.3 262 79.2C291 82 320 93 349 90.3C378 87.7 407 71.3 436.2 65.8C465.3 60.3 494.7 65.7 523.8 69.3C553 73 582 75 611 77.7C640 80.3 669 83.7 698 79.2C727 74.7 756 62.3 785.2 59.7C814.3 57 843.7 64 872.8 62.2C902 60.3 931 49.7 945.5 44.3L960 39L960 0L945.5 0C931 0 902 0 872.8 0C843.7 0 814.3 0 785.2 0C756 0 727 0 698 0C669 0 640 0 611 0C582 0 553 0 523.8 0C494.7 0 465.3 0 436.2 0C407 0 378 0 349 0C320 0 291 0 262 0C233 0 204 0 174.8 0C145.7 0 116.3 0 87.2 0C58 0 29 0 14.5 0L0 0Z" fill="#004cbb"></path><path d="M0 185L14.5 186.7C29 188.3 58 191.7 87.2 199.7C116.3 207.7 145.7 220.3 174.8 216.8C204 213.3 233 193.7 262 182C291 170.3 320 166.7 349 157.7C378 148.7 407 134.3 436.2 129C465.3 123.7 494.7 127.3 523.8 139C553 150.7 582 170.3 611 172C640 173.7 669 157.3 698 154.7C727 152 756 163 785.2 174.8C814.3 186.7 843.7 199.3 872.8 202C902 204.7 931 197.3 945.5 193.7L960 190L960 37L945.5 42.3C931 47.7 902 58.3 872.8 60.2C843.7 62 814.3 55 785.2 57.7C756 60.3 727 72.7 698 77.2C669 81.7 640 78.3 611 75.7C582 73 553 71 523.8 67.3C494.7 63.7 465.3 58.3 436.2 63.8C407 69.3 378 85.7 349 88.3C320 91 291 80 262 77.2C233 74.3 204 79.7 174.8 85.2C145.7 90.7 116.3 96.3 87.2 95.5C58 94.7 29 87.3 14.5 83.7L0 80Z" fill="#2573ff"></path><path d="M0 363L14.5 357.5C29 352 58 341 87.2 339.2C116.3 337.3 145.7 344.7 174.8 353.7C204 362.7 233 373.3 262 362.5C291 351.7 320 319.3 349 290.7C378 262 407 237 436.2 240.7C465.3 244.3 494.7 276.7 523.8 299.2C553 321.7 582 334.3 611 346C640 357.7 669 368.3 698 374.5C727 380.7 756 382.3 785.2 376C814.3 369.7 843.7 355.3 872.8 354.5C902 353.7 931 366.3 945.5 372.7L960 379L960 188L945.5 191.7C931 195.3 902 202.7 872.8 200C843.7 197.3 814.3 184.7 785.2 172.8C756 161 727 150 698 152.7C669 155.3 640 171.7 611 170C582 168.3 553 148.7 523.8 137C494.7 125.3 465.3 121.7 436.2 127C407 132.3 378 146.7 349 155.7C320 164.7 291 168.3 262 180C233 191.7 204 211.3 174.8 214.8C145.7 218.3 116.3 205.7 87.2 197.7C58 189.7 29 186.3 14.5 184.7L0 183Z" fill="#6198ff"></path><path d="M0 406L14.5 398.8C29 391.7 58 377.3 87.2 375.5C116.3 373.7 145.7 384.3 174.8 399.7C204 415 233 435 262 431.5C291 428 320 401 349 372.2C378 343.3 407 312.7 436.2 307.2C465.3 301.7 494.7 321.3 523.8 344.7C553 368 582 395 611 406.7C640 418.3 669 414.7 698 420.2C727 425.7 756 440.3 785.2 440.3C814.3 440.3 843.7 425.7 872.8 424.7C902 423.7 931 436.3 945.5 442.7L960 449L960 377L945.5 370.7C931 364.3 902 351.7 872.8 352.5C843.7 353.3 814.3 367.7 785.2 374C756 380.3 727 378.7 698 372.5C669 366.3 640 355.7 611 344C582 332.3 553 319.7 523.8 297.2C494.7 274.7 465.3 242.3 436.2 238.7C407 235 378 260 349 288.7C320 317.3 291 349.7 262 360.5C233 371.3 204 360.7 174.8 351.7C145.7 342.7 116.3 335.3 87.2 337.2C58 339 29 350 14.5 355.5L0 361Z" fill="#2573ff"></path><path d="M0 541L14.5 541C29 541 58 541 87.2 541C116.3 541 145.7 541 174.8 541C204 541 233 541 262 541C291 541 320 541 349 541C378 541 407 541 436.2 541C465.3 541 494.7 541 523.8 541C553 541 582 541 611 541C640 541 669 541 698 541C727 541 756 541 785.2 541C814.3 541 843.7 541 872.8 541C902 541 931 541 945.5 541L960 541L960 447L945.5 440.7C931 434.3 902 421.7 872.8 422.7C843.7 423.7 814.3 438.3 785.2 438.3C756 438.3 727 423.7 698 418.2C669 412.7 640 416.3 611 404.7C582 393 553 366 523.8 342.7C494.7 319.3 465.3 299.7 436.2 305.2C407 310.7 378 341.3 349 370.2C320 399 291 426 262 429.5C233 433 204 413 174.8 397.7C145.7 382.3 116.3 371.7 87.2 373.5C58 375.3 29 389.7 14.5 396.8L0 404Z" fill="#004cbb"></path></svg>
