<svg version="1" xmlns="http://www.w3.org/2000/svg" width="682.667" height="682.667" viewBox="0 0 512.000000 512.000000"><path d="M262.8 137.6c-15.4 2.8-30.6 9.7-43.6 19.9-3.9 3-7.5 5.5-8.1 5.5-.6 0-1.1.4-1.1.8s-1.6.6-3.5.4c-2-.2-3.5 0-3.5.6s-.9.8-2 .5c-1.1-.3-2-.1-2 .5s-.9.8-2 .5c-1.2-.3-2 0-2 .6 0 .7-.4 1-.9.6-1.5-.8-13.8 4.1-21.3 8.6-14.7 8.7-31.8 25.2-31.8 30.8 0 2.8.5 2.7 8.6-1.1 5.8-2.8 8.3-3.3 15.6-3.6 6.5-.3 9.5 0 11.9 1.2 1.8.9 3.7 1.6 4.3 1.6.6 0 2.8-3 4.9-6.8 6-10.5 8.2-12.7 4.3-4.2-5.6 12.3-7.7 21.7-8.3 37.5-.4 11.7-.1 15.5 1.5 23.1 7 31.3 24.9 54.7 52.7 68.4 15.8 7.8 23 9.4 42 9.5 8.8 0 17.5-.3 19.3-.7 2.8-.7 3.7-.3 7.2 2.8 2.2 2 6.1 7.2 8.8 11.6 5.1 8.7 12.2 16 19.4 19.7 8.7 4.6 13-.1 7.3-7.9-4.1-5.5-6.5-14.9-6.5-25.2 0-9.7-1.2-13.2-5.6-16.7-2.2-1.7-3-1.9-4.3-.9-.9.7-.1-.4 1.7-2.5 4-4.7 4.1-8.4.4-14.6-5.2-8.5-6.5-13-7.1-24.6-.6-10.9-.6-11-3.2-11.3-2.1-.3-3.2.6-6.3 5-5.6 8.2-7.7 14.8-8.6 27.5-.6 7.6-1.5 12.7-2.9 15.9-1.9 4.2-2.3 4.6-4.8 4-6.4-1.5-16.1-7.4-23.1-14-6-5.8-8.1-8.6-11.7-16-8.3-17.3-8.6-33.2-.9-50.2l2.6-5.9 1.7 4.9c1 2.8 2.3 5.2 2.9 5.4 1.7.5 3.8-5 6-15.8 1.7-8.3 2.2-9.4 5.3-11.8l3.4-2.6-2.7 3c-3.6 3.9-3.5 5.4.7 11.3 5.2 7.2 9.4 17.1 10.8 25.8 1.1 6.6 1.6 7.8 3.3 7.8 1.4 0 2.7-1.9 5.1-7.6 4.8-11.2 6.7-21.4 6-33.6l-.5-10.3 2.7.6c9.4 2.2 14.7 6.4 26.8 21.1 8.8 10.7 11.5 12.5 15.9 10.4 5-2.2 4.9-9.1-.2-19.2-1.2-2.5-1.2-2.7.5-2.2 1.5.4 2.2-.6 3.7-4.9 3.6-10.3 1.6-25.8-4.9-38.8-3.9-7.9-15.3-20.2-23-24.8-15.6-9.4-40.3-13.3-60.9-9.6z"/></svg>